<svg width="46" height="46" viewBox="0 0 46 46" fill="none" xmlns="http://www.w3.org/2000/svg">
<g id="Frame" clip-path="url(#clip0_113_545)">
<g id="Group">
<path id="Vector" d="M46 23C46 35.7027 35.7027 46 23 46C10.2973 46 0 35.7027 0 23C0 10.2973 10.2973 0 23 0C35.7027 0 46 10.2973 46 23Z" fill="#F0C48A"/>
<path id="Vector_2" d="M41.4603 23.3759C41.4603 33.3352 33.3869 41.4085 23.4281 41.4085C13.469 41.4085 5.39551 33.3352 5.39551 23.3759C5.39551 13.4167 13.4688 5.34338 23.4281 5.34338C33.3869 5.34338 41.4603 13.4167 41.4603 23.3759Z" fill="#A4CFF2"/>
<path id="Vector_3" d="M36.1797 10.625C32.2908 6.7366 27.0682 4.99616 21.9844 5.40238C26.1068 5.73182 30.1372 7.47182 33.2908 10.625C40.333 17.6672 40.333 29.0847 33.2908 36.1268C30.1372 39.28 26.1068 41.0205 21.9844 41.3495C27.0682 41.7557 32.2908 40.0153 36.1797 36.1268C43.2219 29.0846 43.2219 17.6672 36.1797 10.625Z" fill="#7BABF1"/>
<path id="Vector_4" d="M36.5419 23.3759C36.5419 30.6184 30.6703 36.4895 23.4281 36.4895C16.1856 36.4895 10.3145 30.6184 10.3145 23.3759C10.3145 16.1332 16.1856 10.2621 23.4281 10.2621C30.6703 10.2621 36.5419 16.1332 36.5419 23.3759Z" fill="#FD919E"/>
<path id="Vector_5" d="M31.218 23.3759C31.218 27.6783 27.7303 31.1662 23.428 31.1662C19.1256 31.1662 15.6377 27.6785 15.6377 23.3759C15.6377 19.0733 19.1255 15.5856 23.428 15.5856C27.7303 15.5856 31.218 19.0733 31.218 23.3759Z" fill="white"/>
<path id="Vector_6" d="M26.3592 23.3759C26.3592 24.9943 25.0472 26.3064 23.4286 26.3064C21.8102 26.3064 20.498 24.9943 20.498 23.3759C20.498 21.7573 21.8103 20.4453 23.4286 20.4453C25.0472 20.4453 26.3592 21.7573 26.3592 23.3759Z" fill="#FD919E"/>
<g id="Group_2">
<path id="Vector_7" d="M23.4286 42.0751C18.4338 42.0751 13.7381 40.1302 10.2064 36.5981C2.91559 29.3073 2.91559 17.4444 10.2064 10.1536C13.7381 6.62197 18.4338 4.67664 23.4286 4.67664C28.4234 4.67664 33.1187 6.62197 36.6508 10.1536C43.9417 17.4444 43.9417 29.3073 36.6508 36.5981C33.1187 40.1298 28.4235 42.0751 23.4286 42.0751ZM23.4286 6.00997C18.7901 6.00997 14.429 7.81641 11.1491 11.0963C4.37825 17.8672 4.37825 28.8845 11.1491 35.6553C14.4291 38.9353 18.7902 40.7418 23.4286 40.7418C28.0671 40.7418 32.4278 38.9353 35.7081 35.6553C42.479 28.8845 42.479 17.8672 35.7081 11.0964C32.4278 7.81641 28.067 6.00997 23.4286 6.00997Z" fill="#4C4372"/>
<path id="Vector_8" d="M23.4288 37.1562C19.7479 37.1562 16.2873 35.7226 13.6844 33.1202C11.0815 30.5173 9.64844 27.0568 9.64844 23.3757C9.64844 19.6953 11.0815 16.2347 13.6844 13.6319C16.2873 11.0292 19.7478 9.59583 23.4289 9.59583C27.1093 9.59583 30.5699 11.029 33.1728 13.6319C35.7757 16.2343 37.2088 19.6953 37.2088 23.3758C37.2088 27.0568 35.7757 30.5173 33.1728 33.1202C30.5699 35.7231 27.1094 37.1562 23.4288 37.1562ZM23.4288 10.9287C20.1038 10.9287 16.9783 12.2235 14.6272 14.5746C12.2764 16.9253 10.9813 20.0512 10.9813 23.3757C10.9813 26.7005 12.276 29.8263 14.6272 32.1771C16.9783 34.5282 20.1038 35.8228 23.4288 35.8228C26.7534 35.8228 29.8789 34.5282 32.23 32.1771C34.5808 29.8264 35.8759 26.7004 35.8759 23.3758C35.8759 20.0512 34.5812 16.9253 32.23 14.5746C29.8789 12.2235 26.7534 10.9287 23.4289 10.9287H23.4288Z" fill="#4C4372"/>
<path id="Vector_9" d="M23.4286 31.8328C21.1695 31.8328 19.0458 30.953 17.4486 29.3558C14.1513 26.0585 14.1513 20.693 17.4486 17.3958C19.0458 15.7986 21.1695 14.9188 23.4286 14.9188C25.6874 14.9188 27.811 15.7985 29.4083 17.3957C32.7056 20.693 32.7056 26.0585 29.4083 29.3558C27.811 30.953 25.6874 31.8328 23.4286 31.8328ZM23.4286 16.2522C21.5258 16.2522 19.7368 16.9934 18.3914 18.3388C15.6139 21.1163 15.6139 25.6354 18.3914 28.4127C19.7368 29.7583 21.5258 30.499 23.4286 30.499C25.3314 30.499 27.12 29.7582 28.4656 28.4127C31.2429 25.6354 31.2429 21.1163 28.4656 18.3389C27.12 16.9934 25.3314 16.2522 23.4286 16.2522Z" fill="#4C4372"/>
<path id="Vector_10" d="M23.4282 26.9731C22.4673 26.9731 21.5637 26.599 20.8844 25.9192C20.2052 25.24 19.8311 24.3368 19.8311 23.3759C19.8311 22.4149 20.2052 21.5117 20.8844 20.832C21.5636 20.1528 22.4673 19.7787 23.4282 19.7787C24.3887 19.7787 25.2924 20.1528 25.9716 20.832C26.6508 21.5117 27.0254 22.4149 27.0254 23.3759C27.0254 24.3368 26.6509 25.24 25.9716 25.9197C25.2924 26.599 24.3892 26.973 23.4283 26.973L23.4282 26.9731ZM23.4282 21.112C23.1308 21.1112 22.8361 21.1694 22.5614 21.2833C22.2866 21.3971 22.0372 21.5643 21.8275 21.7752C21.6165 21.9849 21.4493 22.2343 21.3354 22.5091C21.2216 22.7839 21.1634 23.0785 21.1643 23.3759C21.1634 23.6733 21.2216 23.9679 21.3353 24.2426C21.4491 24.5174 21.6162 24.7668 21.8271 24.9766C22.2551 25.4041 22.8232 25.6398 23.4282 25.6398C23.7256 25.6407 24.0203 25.5825 24.295 25.4687C24.5698 25.3548 24.8193 25.1876 25.0289 24.9766C25.2398 24.7669 25.407 24.5174 25.5208 24.2427C25.6346 23.9679 25.6928 23.6733 25.6921 23.3759C25.6928 23.0785 25.6346 22.7839 25.5208 22.5092C25.407 22.2344 25.2398 21.985 25.0289 21.7752C24.6009 21.3477 24.0328 21.112 23.4282 21.112Z" fill="#4C4372"/>
</g>
<path id="Vector_11" d="M8.72983 4.59155L12.7368 8.59855L12.2129 12.2652L8.20605 8.25822L8.72983 4.59155Z" fill="#FD919E"/>
<path id="Vector_12" d="M8.2054 8.25818L12.2123 12.2652L8.54562 12.7891L4.53906 8.78207L8.2054 8.25818Z" fill="#FD919E"/>
<path id="Vector_13" d="M23.3693 24.0886C23.2818 24.0887 23.195 24.0714 23.1142 24.0379C23.0333 24.0044 22.9598 23.9552 22.898 23.8932L7.73431 8.72955C7.47398 8.46922 7.47398 8.04733 7.73431 7.78689C7.99465 7.52644 8.41709 7.52644 8.67709 7.78689L23.8406 22.9506C23.9026 23.0124 23.9517 23.0859 23.9852 23.1668C24.0187 23.2477 24.0359 23.3343 24.0359 23.4219C24.0359 23.5094 24.0187 23.5961 23.9852 23.677C23.9517 23.7579 23.9026 23.8313 23.8406 23.8932C23.7788 23.9552 23.7054 24.0044 23.6245 24.0379C23.5436 24.0714 23.4569 24.0887 23.3693 24.0886Z" fill="#4C4372"/>
<path id="Vector_14" d="M12.2125 12.9319C12.0357 12.9319 11.8662 12.8616 11.7412 12.7366L7.73419 8.7296C7.66098 8.6564 7.60583 8.56714 7.57314 8.46891C7.54045 8.37068 7.53111 8.26618 7.54586 8.16371L8.06975 4.49749C8.1053 4.24749 8.27941 4.03915 8.51897 3.95927C8.75852 3.87938 9.02241 3.94193 9.20119 4.12027L13.2079 8.12726C13.281 8.20044 13.3361 8.28964 13.3689 8.38779C13.4016 8.48595 13.4111 8.59038 13.3965 8.69282L12.8726 12.3595C12.85 12.5184 12.7707 12.6638 12.6495 12.7689C12.5283 12.8741 12.373 12.932 12.2125 12.9319ZM8.91319 8.0226L11.7413 10.8507L12.0295 8.83427L9.20097 6.00615L8.91319 8.0226Z" fill="#4C4372"/>
<path id="Vector_15" d="M8.54582 13.4557C8.36916 13.4557 8.19978 13.3854 8.07493 13.2604L4.06748 9.25331C3.97988 9.16576 3.9184 9.05554 3.88993 8.93501C3.86145 8.81448 3.86712 8.68841 3.90629 8.57091C3.94546 8.45342 4.01658 8.34917 4.11168 8.26983C4.20678 8.1905 4.3221 8.13922 4.4447 8.12175L8.11137 7.59797C8.21383 7.58322 8.31832 7.5926 8.41651 7.62538C8.5147 7.65815 8.60387 7.71341 8.67693 7.78675L12.6838 11.7937C12.7714 11.8812 12.8329 11.9914 12.8614 12.1118C12.8899 12.2323 12.8843 12.3583 12.8452 12.4757C12.806 12.5932 12.735 12.6974 12.64 12.7767C12.5449 12.8561 12.4297 12.9074 12.3071 12.9249L8.64048 13.4486C8.60871 13.4534 8.57715 13.4557 8.54582 13.4557ZM5.95337 9.25353L8.78148 12.082L10.7985 11.7939L7.96982 8.96531L5.95337 9.25353Z" fill="#4C4372"/>
</g>
</g>
<defs>
<clipPath id="clip0_113_545">
<rect width="46" height="46" fill="white"/>
</clipPath>
</defs>
</svg>
