<svg width="46" height="46" viewBox="0 0 46 46" fill="none" xmlns="http://www.w3.org/2000/svg">
<g id="Frame" clip-path="url(#clip0_119_563)">
<g id="Group">
<path id="Vector" d="M46 23C46 35.7027 35.7027 46 23 46C10.2973 46 0 35.7027 0 23C0 10.2973 10.2973 0 23 0C35.7027 0 46 10.2973 46 23Z" fill="#F0C48A"/>
<path id="Vector_2" d="M44.5219 22.6666C42.3772 18.9557 39.2888 15.8446 35.5995 13.6666C31.7997 11.4222 27.4441 10.2444 22.9997 10.2444C18.5552 10.2444 14.1997 11.4329 10.3999 13.6666C6.71057 15.8446 3.62213 18.9557 1.47758 22.6666C1.35513 22.8775 1.35513 23.1333 1.47758 23.3333C3.62202 27.0442 6.71057 30.1553 10.3998 32.3333C14.1999 34.5777 18.5552 35.7555 22.9997 35.7555C27.4441 35.7555 31.7997 34.5668 35.5995 32.3333C39.2888 30.1553 42.3772 27.0442 44.5218 23.3333C44.6442 23.1224 44.6442 22.8666 44.5218 22.6666H44.5219ZM34.9219 31.1779C31.3218 33.2998 27.1997 34.4222 22.9997 34.4222C18.7997 34.4222 14.6777 33.2997 11.0775 31.1777C7.68857 29.1777 4.84435 26.3553 2.83302 22.9998C4.85524 19.6332 7.69968 16.8109 11.0775 14.8218C14.6776 12.7001 18.7997 11.5777 22.9997 11.5777C27.1997 11.5777 31.3217 12.7002 34.9219 14.8222C38.3108 16.8222 41.155 19.6446 43.1663 23.0001C41.1441 26.3667 38.2997 29.1889 34.9219 31.1781V31.1779Z" fill="#4C4372"/>
<path id="Vector_3" d="M43.1663 23C41.1441 26.3666 38.2997 29.1889 34.9219 31.178C31.3218 33.2999 27.1997 34.4222 22.9997 34.4222C18.7997 34.4222 14.6777 33.2998 11.0775 31.1778C7.68856 29.1778 4.84434 26.3553 2.83301 22.9999C4.85523 19.6332 7.69967 16.811 11.0775 14.8219C14.6776 12.7001 18.7997 11.5778 22.9997 11.5778C27.1997 11.5778 31.3217 12.7002 34.9219 14.8222C38.2997 16.8113 41.1441 19.6333 43.1663 23.0001V23Z" fill="white"/>
<path id="Vector_4" d="M35.0889 23C35.0889 29.6767 29.6767 35.0889 23 35.0889C16.3234 35.0889 10.9111 29.6767 10.9111 23C10.9111 16.3234 16.3234 10.9111 23 10.9111C29.6767 10.9111 35.0889 16.3234 35.0889 23Z" fill="#7BABF1"/>
<path id="Vector_5" d="M22.9997 35.7555C15.9664 35.7555 10.2441 30.0333 10.2441 22.9999C10.2441 15.9666 15.9664 10.2444 22.9997 10.2444C30.033 10.2444 35.7553 15.9666 35.7553 22.9999C35.7553 30.0333 30.033 35.7555 22.9997 35.7555ZM22.9997 11.5777C16.6997 11.5777 11.5775 16.6999 11.5775 22.9999C11.5775 29.2999 16.6997 34.4222 22.9997 34.4222C29.2997 34.4222 34.4219 29.2999 34.4219 22.9999C34.4219 16.6999 29.2997 11.5777 22.9997 11.5777Z" fill="#4C4372"/>
<path id="Vector_6" d="M28.7448 23.0001C28.7448 26.1728 26.1731 28.7445 23.0003 28.7445C19.8275 28.7445 17.2559 26.1728 17.2559 23.0001C17.2559 19.8273 19.8275 17.2556 23.0003 17.2556C26.1731 17.2556 28.7448 19.8273 28.7448 23.0001Z" fill="#FD919E"/>
<path id="Vector_7" d="M23 29.4111C19.4666 29.4111 16.5889 26.5333 16.5889 23C16.5889 19.4666 19.4666 16.5889 23 16.5889C26.5333 16.5889 29.4111 19.4666 29.4111 23C29.4111 26.5333 26.5333 29.4111 23 29.4111ZM23 17.9222C20.2 17.9222 17.9222 20.2 17.9222 23C17.9222 25.8 20.2 28.0778 23 28.0778C25.8 28.0778 28.0778 25.8 28.0778 23C28.0778 20.2 25.8 17.9222 23 17.9222Z" fill="#4C4372"/>
</g>
</g>
<defs>
<clipPath id="clip0_119_563">
<rect width="46" height="46" fill="white"/>
</clipPath>
</defs>
</svg>
